<?xml version="1.0" standalone="no"?>
<!DOCTYPE svg PUBLIC "-//W3C//DTD SVG 20010904//EN"
 "http://www.w3.org/TR/2001/REC-SVG-20010904/DTD/svg10.dtd">
<svg version="1.0" xmlns="http://www.w3.org/2000/svg"
 width="260.000000pt" height="260.000000pt" viewBox="0 0 260.000000 260.000000"
 preserveAspectRatio="xMidYMid meet">
<metadata>
Created by potrace 1.14, written by Peter Selinger 2001-2017
</metadata>
<g transform="translate(0.000000,260.000000) scale(0.100000,-0.100000)"
fill="#000000" stroke="none">
<path d="M1150 2593 c-290 -45 -514 -146 -713 -323 -289 -256 -441 -609 -432
-1000 2 -80 6 -158 10 -175 21 -99 28 -128 51 -199 142 -445 510 -770 985
-872 117 -25 380 -25 499 0 311 66 569 223 765 466 139 171 232 384 269 611
14 84 14 322 1 404 -12 68 -56 230 -66 240 -5 5 -9 15 -9 23 0 23 -77 173
-127 249 -90 136 -213 261 -348 355 -143 99 -370 189 -540 214 -41 7 -314 12
-345 7z"/>
</g>
</svg>
